<?xml version="1.0" standalone="no"?><!DOCTYPE svg PUBLIC "-//W3C//DTD SVG 1.1//EN" "http://www.w3.org/Graphics/SVG/1.1/DTD/svg11.dtd"><svg t="1498014138095" class="icon" style="" viewBox="0 0 1024 1024" version="1.1" xmlns="http://www.w3.org/2000/svg" p-id="3475" xmlns:xlink="http://www.w3.org/1999/xlink" width="32" height="32"><path d="M520 912q0-8-8-8-29.5 0-50.75-21.25t-21.25-50.75q0-8-8-8t-8 8q0 36.5 25.75 62.25t62.25 25.75q8 0 8-8zm408-144q0 26-19 45t-45 19l-224 0q0 53-37.5 90.5t-90.5 37.5-90.5-37.5-37.5-90.5l-224 0q-26 0-45-19t-19-45q25-21 45.5-44t42.5-59.75 37.25-79.25 25-103 9.75-130q0-76 58.5-141.25t153.5-79.25q-4-9.5-4-19.5 0-20 14-34t34-14 34 14 14 34q0 10-4 19.5 95 14 153.5 79.25t58.5 141.25q0 69.5 9.75 130t25 103 37.25 79.25 42.5 59.75 45.5 44z" p-id="3476"></path></svg>