<?xml version="1.0" standalone="no"?><!DOCTYPE svg PUBLIC "-//W3C//DTD SVG 1.1//EN" "http://www.w3.org/Graphics/SVG/1.1/DTD/svg11.dtd"><svg class="icon" width="16px" height="5.81px" viewBox="0 0 2819 1024" version="1.1" xmlns="http://www.w3.org/2000/svg"><path fill="#515151" d="M2789.04942 440.951174l-133.153731-176.595777a2887.225293 2887.225293 0 0 0 105.906056-87.089738A99.942414 99.942414 0 0 0 2771.055672 34.498127a104.517967 104.517967 0 0 0-145.4923-9.151106c-304.865491 261.88614-622.069552 424.80667-943.900576 484.340268a1560.726236 1560.726236 0 0 1-282.244781 25.705354 1622.367674 1622.367674 0 0 1-489.944035-77.11606A1982.499675 1982.499675 0 0 1 375.316736 191.249372 1643.90876 1643.90876 0 0 1 177.385515 30.950788a102.821414 102.821414 0 0 0-74.031417-30.846424 104.209503 104.209503 0 0 0-71.97499 28.37871A100.713575 100.713575 0 0 0 0.018577 99.48126a99.582539 99.582539 0 0 0 28.789996 71.974989 1555.739398 1555.739398 0 0 0 133.15373 115.314216L45.774106 433.753675a100.559342 100.559342 0 0 0-21.07839 74.699757 99.428307 99.428307 0 0 0 39.586244 67.090973 104.826431 104.826431 0 0 0 144.978194-17.942337L329.0471 405.68343a2233.898031 2233.898031 0 0 0 364.501911 190.219615L616.947058 758.463699a100.045235 100.045235 0 0 0 50.382493 134.284767 103.952449 103.952449 0 0 0 136.75248-49.200047l85.341773-179.577599a1845.644373 1845.644373 0 0 0 405.630477 70.843954v185.387009a103.335521 103.335521 0 0 0 206.671041 0v-185.078544a1776.342741 1776.342741 0 0 0 214.896754-25.705354 1854.178551 1854.178551 0 0 0 235.461037-59.585009l89.45463 182.250956a104.415145 104.415145 0 0 0 137.780694 47.195028 100.302289 100.302289 0 0 0 48.326065-135.004516l-82.771238-168.370064a2314.767073 2314.767073 0 0 0 344.965842-190.785133l133.153731 176.441545a104.72361 104.72361 0 0 0 144.464086 21.181212 100.3537 100.3537 0 0 0 40.614458-66.319812 98.657146 98.657146 0 0 0-19.021961-75.162453z" /></svg>