<?xml version="1.0" standalone="no"?><!DOCTYPE svg PUBLIC "-//W3C//DTD SVG 1.1//EN" "http://www.w3.org/Graphics/SVG/1.1/DTD/svg11.dtd"><svg class="icon" width="32px" height="32.00px" viewBox="0 0 1024 1024" version="1.1" xmlns="http://www.w3.org/2000/svg"><path fill="#515151" d="M1000.87 371.43L528.66 17.09c-0.43-0.32-1-0.37-1.4-0.67a26.52 26.52 0 0 0-5.41-2.57 27.45 27.45 0 0 0-4.5-1.56 23.51 23.51 0 0 0-15.4 1.65 26.6 26.6 0 0 0-5.16 2.46c-0.46 0.3-1 0.35-1.44 0.69L23.13 371.43a27.78 27.78 0 1 0 33.31 44.45L512 74l455.56 341.88a27.78 27.78 0 0 0 33.31-44.45zM928.66 456.18A27.77 27.77 0 0 0 900.88 484v472.42h-250v-139c0-76.61-62.31-139-138.89-139s-138.89 62.34-138.89 139v139h-250V484a27.78 27.78 0 1 0-55.55 0v500.21A27.77 27.77 0 0 0 95.34 1012h305.55a27.77 27.77 0 0 0 27.78-27.79V817.46a83.33 83.33 0 1 1 166.66 0v166.75a27.77 27.77 0 0 0 27.78 27.79h305.55a27.77 27.77 0 0 0 27.78-27.79V484a27.77 27.77 0 0 0-27.78-27.82z" /></svg>