<?xml version="1.0" standalone="no"?><!DOCTYPE svg PUBLIC "-//W3C//DTD SVG 1.1//EN" "http://www.w3.org/Graphics/SVG/1.1/DTD/svg11.dtd"><svg class="icon" width="32px" height="32.00px" viewBox="0 0 1024 1024" version="1.1" xmlns="http://www.w3.org/2000/svg"><path fill="#515151" d="M745.912402 429.322482V285.597102c0-131.748366-106.826155-238.574522-238.574522-238.574522-1.64202 0-2.829139-0.094872-4.4444-0.047436-1.330644-0.02311-3.016451 0.070546-4.371421 0.070546-131.77999 0-238.55871 106.826155-238.55871 238.576954v143.701054H175.519747v493.45734h657.069404v-493.45734h-86.676749v-0.001216zM578.641675 832.311832H429.628992l36.495409-159.525259c-21.829132-12.996282-36.495409-36.7557-36.495409-64.009578 0-41.152664 33.358543-74.512423 74.499044-74.512424 41.152664 0 74.511207 33.35976 74.511207 74.512424 0 27.359698-14.790341 51.203041-36.767863 64.176213l36.770295 159.358624z m47.899541-402.98935H379.310209V285.622644c0-65.720928 53.48484-119.181442 119.21185-119.181441 1.876768 0 5.820048-0.094872 5.820047-0.094873s1.995966 0.071762 2.995774 0.071763c65.718495 0 119.203335 53.460514 119.203336 119.180225v143.724164z" /></svg>