<?xml version="1.0" standalone="no"?><!DOCTYPE svg PUBLIC "-//W3C//DTD SVG 1.1//EN" "http://www.w3.org/Graphics/SVG/1.1/DTD/svg11.dtd"><svg t="1498011378225" class="icon" style="" viewBox="0 0 1024 1024" version="1.1" xmlns="http://www.w3.org/2000/svg" p-id="2488" xmlns:xlink="http://www.w3.org/1999/xlink" width="32" height="32"><path d="M47.86028 107.588411l112.261052 0 0 112.20272-112.261052 0 0-112.20272Z" p-id="2489" fill="#515151"></path><path d="M280.044244 107.588411l696.088312 0 0 112.20272-696.088312 0 0-112.20272Z" p-id="2490" fill="#515151"></path><path d="M47.86028 339.772375l112.261052 0 0 112.20272-112.261052 0 0-112.20272Z" p-id="2491" fill="#515151"></path><path d="M280.044244 339.772375l696.088312 0 0 112.20272-696.088312 0 0-112.20272Z" p-id="2492" fill="#515151"></path><path d="M47.86028 571.95634l112.261052 0 0 112.20272-112.261052 0 0-112.20272Z" p-id="2493" fill="#515151"></path><path d="M280.044244 571.95634l696.088312 0 0 112.20272-696.088312 0 0-112.20272Z" p-id="2494" fill="#515151"></path><path d="M47.86028 804.140304l112.261052 0 0 112.20272-112.261052 0 0-112.20272Z" p-id="2495" fill="#515151"></path><path d="M280.044244 804.140304l696.088312 0 0 112.20272-696.088312 0 0-112.20272Z" p-id="2496" fill="#515151"></path></svg>