<?xml version="1.0" standalone="no"?><!DOCTYPE svg PUBLIC "-//W3C//DTD SVG 1.1//EN" "http://www.w3.org/Graphics/SVG/1.1/DTD/svg11.dtd"><svg t="1498554477001" class="icon" style="" viewBox="0 0 1025 1024" version="1.1" xmlns="http://www.w3.org/2000/svg" p-id="3148" xmlns:xlink="http://www.w3.org/1999/xlink" width="32.03125" height="32"><defs><style type="text/css"></style></defs><path d="M511.961256 0.009998C229.655329 0.009998 0 196.859055 0 438.834947 0 571.984186 72.043524 697.1597 198.897486 783.280804L295.0736 842.740922C290.866749 869.653322 273.646533 927.86924 256.856282 975.225919 251.99662 989.013527 255.796351 1004.375304 266.515602 1014.286038 273.390836 1020.647022 282.313067 1024.011072 291.346717 1024.011072 296.390654 1024.011072 301.43601 1022.985429 306.228533 1020.864146 347.844189 1002.328308 474.738149 942.058247 520.593507 877.587049 798.956845 873.603044 1023.929645 678.288165 1023.929645 438.834947 1023.929645 196.859055 794.274316 0.009998 511.961256 0.009998L511.961256 0.009998ZM589.930076 544.887519 366.788573 544.887519C346.59999 544.887519 330.216853 528.504382 330.216853 508.317224 330.216853 488.128635 346.59999 471.745498 366.788573 471.745498L589.930076 471.745498C610.152941 471.745498 626.496081 488.128635 626.496081 508.317224 626.496081 528.504382 610.152941 544.887519 589.930076 544.887519L589.930076 544.887519ZM659.300927 398.609199 366.788573 398.609199C346.59999 398.609199 330.216853 382.226062 330.216853 362.043194 330.216853 341.854604 346.59999 325.472899 366.788573 325.472899L659.300927 325.472899C679.522366 325.472899 695.866932 341.854604 695.866932 362.043194 695.866932 382.226062 679.522366 398.609199 659.300927 398.609199L659.300927 398.609199Z" p-id="3149"></path></svg>