<?xml version="1.0" standalone="no"?><!DOCTYPE svg PUBLIC "-//W3C//DTD SVG 1.1//EN" "http://www.w3.org/Graphics/SVG/1.1/DTD/svg11.dtd"><svg class="icon" width="32px" height="32.00px" viewBox="0 0 1024 1024" version="1.1" xmlns="http://www.w3.org/2000/svg"><path fill="#515151" d="M737.5 91.4C616.3 91.4 518 189.6 518 310.8v158.6H252.3v-0.2h-73.2v0.2h-75.6C83.4 469.4 67 485.8 67 506v390c0 20.2 16.4 36.6 36.6 36.6h575.6c20.2 0 36.5-16.4 36.5-36.6V506c0-20.2-16.3-36.6-36.5-36.6h-88V310.8c0-80.8 65.5-146.3 146.4-146.3 80.8 0 146.3 65.5 146.3 146.3 0 20.2 16.4 36.6 36.6 36.6 20.2 0 36.5-16.4 36.5-36.6 0-121.2-98.3-219.4-219.5-219.4zM427.9 707.9V779c0 20.2-16.4 36.6-36.6 36.6-20.2 0-36.6-16.4-36.6-36.6v-71.1C333 695.2 318.2 672 318.2 645c0-40.4 32.8-73.2 73.2-73.2 40.4 0 73.2 32.7 73.2 73.2-0.1 27-14.9 50.2-36.7 62.9z" /></svg>